<svg width="38" height="38" viewBox="0 0 38 38" fill="none" xmlns="http://www.w3.org/2000/svg">
<path fill-rule="evenodd" clip-rule="evenodd" d="M32.9034 5.09677C33.014 5.20708 33.1018 5.33812 33.1616 5.48239C33.2215 5.62666 33.2523 5.78132 33.2523 5.93752C33.2523 6.09371 33.2215 6.24838 33.1616 6.39265C33.1018 6.53692 33.014 6.66796 32.9034 6.77827L6.77844 32.9033C6.55546 33.1262 6.25303 33.2515 5.93769 33.2515C5.62235 33.2515 5.31992 33.1262 5.09694 32.9033C4.87396 32.6803 4.74869 32.3779 4.74869 32.0625C4.74869 31.7472 4.87396 31.4447 5.09694 31.2218L31.2219 5.09677C31.3322 4.98618 31.4633 4.89844 31.6076 4.83857C31.7518 4.77871 31.9065 4.74789 32.0627 4.74789C32.2189 4.74789 32.3735 4.77871 32.5178 4.83857C32.6621 4.89844 32.7931 4.98618 32.9034 5.09677V5.09677Z" fill="#009E12"/>
<path fill-rule="evenodd" clip-rule="evenodd" d="M5.09686 5.09677C4.98627 5.20708 4.89853 5.33812 4.83867 5.48239C4.7788 5.62666 4.74799 5.78132 4.74799 5.93752C4.74799 6.09371 4.7788 6.24838 4.83867 6.39265C4.89853 6.53692 4.98627 6.66796 5.09686 6.77827L31.2219 32.9033C31.4448 33.1262 31.7473 33.2515 32.0626 33.2515C32.3779 33.2515 32.6804 33.1262 32.9034 32.9033C33.1263 32.6803 33.2516 32.3779 33.2516 32.0625C33.2516 31.7472 33.1263 31.4447 32.9034 31.2218L6.77836 5.09677C6.66805 4.98618 6.53701 4.89844 6.39274 4.83857C6.24847 4.77871 6.09381 4.74789 5.93761 4.74789C5.78141 4.74789 5.62675 4.77871 5.48248 4.83857C5.33821 4.89844 5.20717 4.98618 5.09686 5.09677V5.09677Z" fill="#009E12"/>
</svg>
