<svg width="223" height="60" viewBox="0 0 223 60" fill="none" xmlns="http://www.w3.org/2000/svg">
<path d="M55.166 37.276C55.558 37.752 55.9827 38.088 56.44 38.284C56.9067 38.48 57.4107 38.578 57.952 38.578C58.4747 38.578 58.946 38.48 59.366 38.284C59.786 38.088 60.1407 37.7893 60.43 37.388C60.7287 36.9867 60.9573 36.4827 61.116 35.876C61.2747 35.26 61.354 34.5367 61.354 33.706C61.354 32.866 61.284 32.1567 61.144 31.578C61.0133 30.99 60.822 30.514 60.57 30.15C60.318 29.786 60.01 29.52 59.646 29.352C59.2913 29.184 58.8853 29.1 58.428 29.1C57.7093 29.1 57.098 29.254 56.594 29.562C56.09 29.8607 55.614 30.2853 55.166 30.836V37.276ZM54.984 28.596C55.572 27.9333 56.2393 27.3967 56.986 26.986C57.7327 26.5753 58.61 26.37 59.618 26.37C60.402 26.37 61.116 26.5333 61.76 26.86C62.4133 27.1867 62.9733 27.6627 63.44 28.288C63.916 28.904 64.28 29.6693 64.532 30.584C64.7933 31.4893 64.924 32.53 64.924 33.706C64.924 34.7793 64.7793 35.7733 64.49 36.688C64.2007 37.6027 63.7853 38.396 63.244 39.068C62.712 39.74 62.0633 40.2673 61.298 40.65C60.542 41.0233 59.6927 41.21 58.75 41.21C57.9473 41.21 57.2613 41.0887 56.692 40.846C56.1227 40.594 55.614 40.2487 55.166 39.81V45.69H51.708V26.636H53.822C54.27 26.636 54.564 26.846 54.704 27.266L54.984 28.596ZM80.2166 26.636L74.5186 41H71.3826L65.6846 26.636H68.5406C68.8019 26.636 69.0166 26.6967 69.1846 26.818C69.3619 26.9393 69.4786 27.0933 69.5346 27.28L72.3066 34.952C72.4559 35.4 72.5866 35.8387 72.6986 36.268C72.8106 36.6973 72.9086 37.1267 72.9926 37.556C73.0859 37.1267 73.1886 36.6973 73.3006 36.268C73.4126 35.8387 73.5479 35.4 73.7066 34.952L76.5346 27.28C76.5999 27.0933 76.7166 26.9393 76.8846 26.818C77.0526 26.6967 77.2533 26.636 77.4866 26.636H80.2166ZM85.5176 37.276C85.9096 37.752 86.3342 38.088 86.7916 38.284C87.2582 38.48 87.7622 38.578 88.3036 38.578C88.8262 38.578 89.2976 38.48 89.7176 38.284C90.1376 38.088 90.4922 37.7893 90.7816 37.388C91.0802 36.9867 91.3089 36.4827 91.4676 35.876C91.6262 35.26 91.7056 34.5367 91.7056 33.706C91.7056 32.866 91.6356 32.1567 91.4956 31.578C91.3649 30.99 91.1736 30.514 90.9216 30.15C90.6696 29.786 90.3616 29.52 89.9976 29.352C89.6429 29.184 89.2369 29.1 88.7796 29.1C88.0609 29.1 87.4496 29.254 86.9456 29.562C86.4416 29.8607 85.9656 30.2853 85.5176 30.836V37.276ZM85.3356 28.596C85.9236 27.9333 86.5909 27.3967 87.3376 26.986C88.0842 26.5753 88.9616 26.37 89.9696 26.37C90.7536 26.37 91.4676 26.5333 92.1116 26.86C92.7649 27.1867 93.3249 27.6627 93.7916 28.288C94.2676 28.904 94.6316 29.6693 94.8836 30.584C95.1449 31.4893 95.2756 32.53 95.2756 33.706C95.2756 34.7793 95.1309 35.7733 94.8416 36.688C94.5522 37.6027 94.1369 38.396 93.5956 39.068C93.0636 39.74 92.4149 40.2673 91.6496 40.65C90.8936 41.0233 90.0442 41.21 89.1016 41.21C88.2989 41.21 87.6129 41.0887 87.0436 40.846C86.4742 40.594 85.9656 40.2487 85.5176 39.81V45.69H82.0596V26.636H84.1736C84.6216 26.636 84.9156 26.846 85.0556 27.266L85.3356 28.596Z" fill="#F2F2F2"/>
<path d="M101.432 37.276C101.824 37.752 102.248 38.088 102.706 38.284C103.172 38.48 103.662 38.578 104.176 38.578C104.708 38.578 105.184 38.4847 105.604 38.298C106.033 38.102 106.397 37.8033 106.696 37.402C106.994 36.9913 107.223 36.4733 107.382 35.848C107.54 35.2133 107.62 34.4573 107.62 33.58C107.62 32.0027 107.358 30.864 106.836 30.164C106.313 29.4547 105.562 29.1 104.582 29.1C103.919 29.1 103.34 29.254 102.846 29.562C102.351 29.8607 101.88 30.2853 101.432 30.836V37.276ZM101.432 28.4C102.01 27.7933 102.65 27.3127 103.35 26.958C104.059 26.594 104.866 26.412 105.772 26.412C106.602 26.412 107.349 26.5753 108.012 26.902C108.684 27.2287 109.253 27.7 109.72 28.316C110.196 28.9227 110.56 29.66 110.812 30.528C111.064 31.396 111.19 32.3713 111.19 33.454C111.19 34.6207 111.045 35.68 110.756 36.632C110.466 37.584 110.051 38.4007 109.51 39.082C108.978 39.754 108.334 40.2767 107.578 40.65C106.822 41.0233 105.982 41.21 105.058 41.21C104.61 41.21 104.204 41.1633 103.84 41.07C103.476 40.986 103.14 40.8647 102.832 40.706C102.524 40.5473 102.239 40.356 101.978 40.132C101.726 39.8987 101.483 39.642 101.25 39.362L101.096 40.328C101.04 40.5707 100.942 40.7433 100.802 40.846C100.671 40.9487 100.489 41 100.256 41H97.9736V20.196H101.432V28.4ZM120.216 26.412C121.28 26.412 122.246 26.5847 123.114 26.93C123.992 27.2753 124.738 27.7653 125.354 28.4C125.98 29.0347 126.46 29.8093 126.796 30.724C127.132 31.6387 127.3 32.6607 127.3 33.79C127.3 34.9287 127.132 35.9553 126.796 36.87C126.46 37.7847 125.98 38.564 125.354 39.208C124.738 39.852 123.992 40.3467 123.114 40.692C122.246 41.0373 121.28 41.21 120.216 41.21C119.143 41.21 118.168 41.0373 117.29 40.692C116.413 40.3467 115.662 39.852 115.036 39.208C114.42 38.564 113.94 37.7847 113.594 36.87C113.258 35.9553 113.09 34.9287 113.09 33.79C113.09 32.6607 113.258 31.6387 113.594 30.724C113.94 29.8093 114.42 29.0347 115.036 28.4C115.662 27.7653 116.413 27.2753 117.29 26.93C118.168 26.5847 119.143 26.412 120.216 26.412ZM120.216 38.55C121.411 38.55 122.293 38.1487 122.862 37.346C123.441 36.5433 123.73 35.3673 123.73 33.818C123.73 32.2687 123.441 31.088 122.862 30.276C122.293 29.464 121.411 29.058 120.216 29.058C119.003 29.058 118.102 29.4687 117.514 30.29C116.936 31.102 116.646 32.278 116.646 33.818C116.646 35.358 116.936 36.534 117.514 37.346C118.102 38.1487 119.003 38.55 120.216 38.55ZM136.294 26.412C137.358 26.412 138.324 26.5847 139.192 26.93C140.07 27.2753 140.816 27.7653 141.432 28.4C142.058 29.0347 142.538 29.8093 142.874 30.724C143.21 31.6387 143.378 32.6607 143.378 33.79C143.378 34.9287 143.21 35.9553 142.874 36.87C142.538 37.7847 142.058 38.564 141.432 39.208C140.816 39.852 140.07 40.3467 139.192 40.692C138.324 41.0373 137.358 41.21 136.294 41.21C135.221 41.21 134.246 41.0373 133.368 40.692C132.491 40.3467 131.74 39.852 131.114 39.208C130.498 38.564 130.018 37.7847 129.672 36.87C129.336 35.9553 129.168 34.9287 129.168 33.79C129.168 32.6607 129.336 31.6387 129.672 30.724C130.018 29.8093 130.498 29.0347 131.114 28.4C131.74 27.7653 132.491 27.2753 133.368 26.93C134.246 26.5847 135.221 26.412 136.294 26.412ZM136.294 38.55C137.489 38.55 138.371 38.1487 138.94 37.346C139.519 36.5433 139.808 35.3673 139.808 33.818C139.808 32.2687 139.519 31.088 138.94 30.276C138.371 29.464 137.489 29.058 136.294 29.058C135.081 29.058 134.18 29.4687 133.592 30.29C133.014 31.102 132.724 32.278 132.724 33.818C132.724 35.358 133.014 36.534 133.592 37.346C134.18 38.1487 135.081 38.55 136.294 38.55ZM154.781 29.436C154.687 29.5853 154.589 29.6927 154.487 29.758C154.384 29.814 154.253 29.842 154.095 29.842C153.927 29.842 153.745 29.7953 153.549 29.702C153.362 29.6087 153.143 29.506 152.891 29.394C152.639 29.2727 152.349 29.1653 152.023 29.072C151.705 28.9787 151.327 28.932 150.889 28.932C150.207 28.932 149.671 29.0767 149.279 29.366C148.896 29.6553 148.705 30.0333 148.705 30.5C148.705 30.808 148.803 31.0693 148.999 31.284C149.204 31.4893 149.47 31.6713 149.797 31.83C150.133 31.9887 150.511 32.1333 150.931 32.264C151.351 32.3853 151.775 32.5207 152.205 32.67C152.643 32.8193 153.073 32.992 153.493 33.188C153.913 33.3747 154.286 33.6173 154.613 33.916C154.949 34.2053 155.215 34.5553 155.411 34.966C155.616 35.3767 155.719 35.8713 155.719 36.45C155.719 37.1407 155.593 37.78 155.341 38.368C155.098 38.9467 154.734 39.4507 154.249 39.88C153.763 40.3 153.161 40.6313 152.443 40.874C151.733 41.1073 150.912 41.224 149.979 41.224C149.484 41.224 148.999 41.1773 148.523 41.084C148.056 41 147.603 40.8787 147.165 40.72C146.735 40.5613 146.334 40.3747 145.961 40.16C145.597 39.9453 145.275 39.712 144.995 39.46L145.793 38.144C145.895 37.9853 146.017 37.864 146.157 37.78C146.297 37.696 146.474 37.654 146.689 37.654C146.903 37.654 147.104 37.7147 147.291 37.836C147.487 37.9573 147.711 38.088 147.963 38.228C148.215 38.368 148.509 38.4987 148.845 38.62C149.19 38.7413 149.624 38.802 150.147 38.802C150.557 38.802 150.907 38.7553 151.197 38.662C151.495 38.5593 151.738 38.4287 151.925 38.27C152.121 38.1113 152.261 37.9293 152.345 37.724C152.438 37.5093 152.485 37.29 152.485 37.066C152.485 36.73 152.382 36.4547 152.177 36.24C151.981 36.0253 151.715 35.8387 151.379 35.68C151.052 35.5213 150.674 35.3813 150.245 35.26C149.825 35.1293 149.391 34.9893 148.943 34.84C148.504 34.6907 148.07 34.518 147.641 34.322C147.221 34.1167 146.843 33.86 146.507 33.552C146.18 33.244 145.914 32.866 145.709 32.418C145.513 31.97 145.415 31.4287 145.415 30.794C145.415 30.206 145.531 29.646 145.765 29.114C145.998 28.582 146.339 28.12 146.787 27.728C147.244 27.3267 147.809 27.0093 148.481 26.776C149.162 26.5333 149.946 26.412 150.833 26.412C151.822 26.412 152.723 26.5753 153.535 26.902C154.347 27.2287 155.023 27.658 155.565 28.19L154.781 29.436ZM163.109 41.224C161.859 41.224 160.897 40.874 160.225 40.174C159.563 39.4647 159.231 38.4893 159.231 37.248V29.226H157.761C157.575 29.226 157.416 29.1653 157.285 29.044C157.155 28.9227 157.089 28.7407 157.089 28.498V27.126L159.399 26.748L160.127 22.828C160.174 22.6413 160.263 22.4967 160.393 22.394C160.524 22.2913 160.692 22.24 160.897 22.24H162.689V26.762H166.525V29.226H162.689V37.01C162.689 37.458 162.797 37.808 163.011 38.06C163.235 38.312 163.539 38.438 163.921 38.438C164.136 38.438 164.313 38.4147 164.453 38.368C164.603 38.312 164.729 38.256 164.831 38.2C164.943 38.144 165.041 38.0927 165.125 38.046C165.209 37.99 165.293 37.962 165.377 37.962C165.48 37.962 165.564 37.99 165.629 38.046C165.695 38.0927 165.765 38.1673 165.839 38.27L166.875 39.95C166.371 40.37 165.793 40.6873 165.139 40.902C164.486 41.1167 163.809 41.224 163.109 41.224ZM177.884 32.166C177.884 31.718 177.819 31.298 177.688 30.906C177.567 30.5047 177.38 30.1547 177.128 29.856C176.876 29.5573 176.554 29.324 176.162 29.156C175.779 28.9787 175.331 28.89 174.818 28.89C173.819 28.89 173.031 29.1747 172.452 29.744C171.883 30.3133 171.519 31.1207 171.36 32.166H177.884ZM171.29 34.252C171.346 34.9893 171.477 35.6287 171.682 36.17C171.887 36.702 172.158 37.1453 172.494 37.5C172.83 37.8453 173.227 38.1067 173.684 38.284C174.151 38.452 174.664 38.536 175.224 38.536C175.784 38.536 176.265 38.4707 176.666 38.34C177.077 38.2093 177.431 38.0647 177.73 37.906C178.038 37.7473 178.304 37.6027 178.528 37.472C178.761 37.3413 178.985 37.276 179.2 37.276C179.489 37.276 179.704 37.3833 179.844 37.598L180.838 38.858C180.455 39.306 180.026 39.684 179.55 39.992C179.074 40.2907 178.575 40.5333 178.052 40.72C177.539 40.8973 177.011 41.0233 176.47 41.098C175.938 41.1727 175.42 41.21 174.916 41.21C173.917 41.21 172.989 41.0467 172.13 40.72C171.271 40.384 170.525 39.894 169.89 39.25C169.255 38.5967 168.756 37.794 168.392 36.842C168.028 35.8807 167.846 34.77 167.846 33.51C167.846 32.53 168.005 31.6107 168.322 30.752C168.639 29.884 169.092 29.1327 169.68 28.498C170.277 27.854 171.001 27.3453 171.85 26.972C172.709 26.5987 173.675 26.412 174.748 26.412C175.653 26.412 176.489 26.5567 177.254 26.846C178.019 27.1353 178.677 27.56 179.228 28.12C179.779 28.6707 180.208 29.352 180.516 30.164C180.833 30.9667 180.992 31.886 180.992 32.922C180.992 33.4447 180.936 33.7993 180.824 33.986C180.712 34.1633 180.497 34.252 180.18 34.252H171.29ZM186.849 29.128C187.297 28.2693 187.829 27.5973 188.445 27.112C189.061 26.6173 189.789 26.37 190.629 26.37C191.292 26.37 191.824 26.5147 192.225 26.804L192.001 29.394C191.954 29.562 191.884 29.6833 191.791 29.758C191.707 29.8233 191.59 29.856 191.441 29.856C191.301 29.856 191.091 29.8327 190.811 29.786C190.54 29.7393 190.274 29.716 190.013 29.716C189.63 29.716 189.29 29.772 188.991 29.884C188.692 29.996 188.422 30.1593 188.179 30.374C187.946 30.5793 187.736 30.8313 187.549 31.13C187.372 31.4287 187.204 31.7693 187.045 32.152V41H183.587V26.636H185.617C185.972 26.636 186.219 26.7013 186.359 26.832C186.499 26.9533 186.592 27.1773 186.639 27.504L186.849 29.128Z" fill="#009E12"/>
<path d="M3.9 16H35.1C36.1343 16 37.1263 16.4109 37.8577 17.1423C38.5891 17.8737 39 18.8657 39 19.9V51.1C39 52.1343 38.5891 53.1263 37.8577 53.8577C37.1263 54.5891 36.1343 55 35.1 55H3.9C2.86566 55 1.87368 54.5891 1.14228 53.8577C0.410892 53.1263 0 52.1343 0 51.1V19.9C0 18.8657 0.410892 17.8737 1.14228 17.1423C1.87368 16.4109 2.86566 16 3.9 16V16ZM7.8 23.8V31.6H15.6V35.5H11.7V47.2H15.6V43.3H23.4V47.2H27.3V35.5H23.4V31.6H31.2V23.8H23.4V31.6H15.6V23.8H7.8Z" fill="#009E12"/>
</svg>
